<mxfile host="app.diagrams.net" modified="2023-09-14T14:39:35.559Z" agent="Mozilla/5.0 (Windows NT 10.0; Win64; x64) AppleWebKit/537.36 (KHTML, like Gecko) Chrome/116.0.0.0 Safari/537.36" etag="mSPB06BPnOdTEBDKDREh" version="21.6.9" type="device" pages="2">
  <diagram id="cn7vhCM6Z3OF8us36La4" name="Page-4">
    <mxGraphModel dx="880" dy="478" grid="0" gridSize="10" guides="1" tooltips="1" connect="1" arrows="1" fold="1" page="1" pageScale="1" pageWidth="850" pageHeight="1100" background="#ffffff" math="0" shadow="0">
      <root>
        <mxCell id="0" />
        <mxCell id="1" parent="0" />
        <mxCell id="jgxjL9STMsoKGn5DW0kD-1" value="" style="ellipse;whiteSpace=wrap;html=1;" parent="1" vertex="1">
          <mxGeometry x="350" y="60" width="120" height="80" as="geometry" />
        </mxCell>
        <mxCell id="jgxjL9STMsoKGn5DW0kD-2" value="" style="endArrow=classic;html=1;rounded=0;" parent="1" edge="1">
          <mxGeometry relative="1" as="geometry">
            <mxPoint x="374" y="250" as="sourcePoint" />
            <mxPoint x="474" y="250" as="targetPoint" />
          </mxGeometry>
        </mxCell>
        <mxCell id="jgxjL9STMsoKGn5DW0kD-3" value="Label" style="edgeLabel;resizable=0;html=1;align=center;verticalAlign=middle;" parent="jgxjL9STMsoKGn5DW0kD-2" connectable="0" vertex="1">
          <mxGeometry relative="1" as="geometry" />
        </mxCell>
      </root>
    </mxGraphModel>
  </diagram>
  <diagram id="oA-tIGb1j_MvEVqcOsTc" name="Page-2">
    <mxGraphModel dx="1354" dy="735" grid="0" gridSize="10" guides="1" tooltips="1" connect="1" arrows="1" fold="1" page="1" pageScale="1" pageWidth="850" pageHeight="1100" math="0" shadow="0">
      <root>
        <mxCell id="0" />
        <mxCell id="1" parent="0" />
        <mxCell id="4beQHR2233J1RBJYsJ32-16" style="edgeStyle=orthogonalEdgeStyle;rounded=0;orthogonalLoop=1;jettySize=auto;html=1;exitX=0.5;exitY=1;exitDx=0;exitDy=0;entryX=0.5;entryY=0;entryDx=0;entryDy=0;" edge="1" parent="1" source="4beQHR2233J1RBJYsJ32-1" target="4beQHR2233J1RBJYsJ32-2">
          <mxGeometry relative="1" as="geometry" />
        </mxCell>
        <mxCell id="4beQHR2233J1RBJYsJ32-1" value="START" style="ellipse;whiteSpace=wrap;html=1;" vertex="1" parent="1">
          <mxGeometry x="340" y="60" width="120" height="80" as="geometry" />
        </mxCell>
        <mxCell id="4beQHR2233J1RBJYsJ32-5" style="edgeStyle=orthogonalEdgeStyle;rounded=0;orthogonalLoop=1;jettySize=auto;html=1;exitX=0;exitY=0.5;exitDx=0;exitDy=0;entryX=0;entryY=0.5;entryDx=0;entryDy=0;" edge="1" parent="1" source="4beQHR2233J1RBJYsJ32-2" target="4beQHR2233J1RBJYsJ32-1">
          <mxGeometry relative="1" as="geometry">
            <Array as="points">
              <mxPoint x="290" y="235" />
              <mxPoint x="290" y="100" />
            </Array>
          </mxGeometry>
        </mxCell>
        <mxCell id="4beQHR2233J1RBJYsJ32-7" style="edgeStyle=orthogonalEdgeStyle;rounded=0;orthogonalLoop=1;jettySize=auto;html=1;exitX=0.5;exitY=1;exitDx=0;exitDy=0;entryX=0.417;entryY=-0.05;entryDx=0;entryDy=0;entryPerimeter=0;" edge="1" parent="1" source="4beQHR2233J1RBJYsJ32-2" target="4beQHR2233J1RBJYsJ32-6">
          <mxGeometry relative="1" as="geometry" />
        </mxCell>
        <mxCell id="4beQHR2233J1RBJYsJ32-2" value="Time According to Schedule" style="rhombus;whiteSpace=wrap;html=1;" vertex="1" parent="1">
          <mxGeometry x="335" y="180" width="130" height="120" as="geometry" />
        </mxCell>
        <mxCell id="4beQHR2233J1RBJYsJ32-15" style="edgeStyle=orthogonalEdgeStyle;rounded=0;orthogonalLoop=1;jettySize=auto;html=1;exitX=0.5;exitY=1;exitDx=0;exitDy=0;entryX=0.5;entryY=0;entryDx=0;entryDy=0;" edge="1" parent="1" source="4beQHR2233J1RBJYsJ32-6" target="4beQHR2233J1RBJYsJ32-14">
          <mxGeometry relative="1" as="geometry" />
        </mxCell>
        <mxCell id="4beQHR2233J1RBJYsJ32-6" value="Servo LED and buzzer in action" style="rounded=0;whiteSpace=wrap;html=1;" vertex="1" parent="1">
          <mxGeometry x="350" y="330" width="120" height="60" as="geometry" />
        </mxCell>
        <mxCell id="4beQHR2233J1RBJYsJ32-10" value="YES" style="text;html=1;strokeColor=none;fillColor=none;align=center;verticalAlign=middle;whiteSpace=wrap;rounded=0;" vertex="1" parent="1">
          <mxGeometry x="410" y="290" width="60" height="30" as="geometry" />
        </mxCell>
        <mxCell id="4beQHR2233J1RBJYsJ32-11" value="NO" style="text;html=1;strokeColor=none;fillColor=none;align=center;verticalAlign=middle;whiteSpace=wrap;rounded=0;" vertex="1" parent="1">
          <mxGeometry x="300" y="200" width="60" height="30" as="geometry" />
        </mxCell>
        <mxCell id="4beQHR2233J1RBJYsJ32-17" style="edgeStyle=orthogonalEdgeStyle;rounded=0;orthogonalLoop=1;jettySize=auto;html=1;exitX=1;exitY=0.5;exitDx=0;exitDy=0;" edge="1" parent="1" source="4beQHR2233J1RBJYsJ32-14">
          <mxGeometry relative="1" as="geometry">
            <mxPoint x="610.0000000000002" y="677.6923076923077" as="targetPoint" />
          </mxGeometry>
        </mxCell>
        <mxCell id="4beQHR2233J1RBJYsJ32-18" style="edgeStyle=orthogonalEdgeStyle;rounded=0;orthogonalLoop=1;jettySize=auto;html=1;exitX=0;exitY=0.5;exitDx=0;exitDy=0;" edge="1" parent="1" source="4beQHR2233J1RBJYsJ32-14">
          <mxGeometry relative="1" as="geometry">
            <mxPoint x="190" y="580" as="targetPoint" />
          </mxGeometry>
        </mxCell>
        <mxCell id="4beQHR2233J1RBJYsJ32-14" value="Hand detection Under 2nd IR sensor" style="rhombus;whiteSpace=wrap;html=1;" vertex="1" parent="1">
          <mxGeometry x="320" y="430" width="180" height="130" as="geometry" />
        </mxCell>
        <mxCell id="4beQHR2233J1RBJYsJ32-21" style="edgeStyle=orthogonalEdgeStyle;rounded=0;orthogonalLoop=1;jettySize=auto;html=1;exitX=0.5;exitY=1;exitDx=0;exitDy=0;entryX=0.614;entryY=0.019;entryDx=0;entryDy=0;entryPerimeter=0;" edge="1" parent="1" source="4beQHR2233J1RBJYsJ32-19" target="4beQHR2233J1RBJYsJ32-20">
          <mxGeometry relative="1" as="geometry" />
        </mxCell>
        <mxCell id="4beQHR2233J1RBJYsJ32-19" value="LED and Buzzer after 5 minute again" style="rounded=0;whiteSpace=wrap;html=1;" vertex="1" parent="1">
          <mxGeometry x="140" y="580" width="140" height="70" as="geometry" />
        </mxCell>
        <mxCell id="4beQHR2233J1RBJYsJ32-20" value="3rd Servo motor pull down in third compartment" style="shape=parallelogram;perimeter=parallelogramPerimeter;whiteSpace=wrap;html=1;fixedSize=1;" vertex="1" parent="1">
          <mxGeometry x="90" y="690" width="220" height="70" as="geometry" />
        </mxCell>
        <mxCell id="4beQHR2233J1RBJYsJ32-22" value="NO" style="text;html=1;strokeColor=none;fillColor=none;align=center;verticalAlign=middle;whiteSpace=wrap;rounded=0;" vertex="1" parent="1">
          <mxGeometry x="230" y="460" width="60" height="30" as="geometry" />
        </mxCell>
        <mxCell id="4beQHR2233J1RBJYsJ32-23" value="NO" style="text;html=1;strokeColor=none;fillColor=none;align=center;verticalAlign=middle;whiteSpace=wrap;rounded=0;" vertex="1" parent="1">
          <mxGeometry x="220" y="650" width="60" height="30" as="geometry" />
        </mxCell>
        <mxCell id="4beQHR2233J1RBJYsJ32-24" value="Yes" style="text;html=1;strokeColor=none;fillColor=none;align=center;verticalAlign=middle;whiteSpace=wrap;rounded=0;" vertex="1" parent="1">
          <mxGeometry x="540" y="450" width="60" height="30" as="geometry" />
        </mxCell>
        <mxCell id="4beQHR2233J1RBJYsJ32-27" style="edgeStyle=orthogonalEdgeStyle;rounded=0;orthogonalLoop=1;jettySize=auto;html=1;exitX=0.5;exitY=1;exitDx=0;exitDy=0;entryX=1;entryY=0.5;entryDx=0;entryDy=0;" edge="1" parent="1" source="4beQHR2233J1RBJYsJ32-25" target="4beQHR2233J1RBJYsJ32-26">
          <mxGeometry relative="1" as="geometry" />
        </mxCell>
        <mxCell id="4beQHR2233J1RBJYsJ32-25" value="Servomotor 2nd pill dispensed" style="shape=parallelogram;perimeter=parallelogramPerimeter;whiteSpace=wrap;html=1;fixedSize=1;" vertex="1" parent="1">
          <mxGeometry x="500" y="670" width="240" height="70" as="geometry" />
        </mxCell>
        <mxCell id="4beQHR2233J1RBJYsJ32-26" value="STOP" style="ellipse;whiteSpace=wrap;html=1;" vertex="1" parent="1">
          <mxGeometry x="350" y="770" width="130" height="80" as="geometry" />
        </mxCell>
      </root>
    </mxGraphModel>
  </diagram>
</mxfile>
